<?xml version="1.0" encoding="UTF-8"?><svg id="Layer_1" xmlns="http://www.w3.org/2000/svg" width="652.53" height="417.41" viewBox="0 0 652.53 417.41"><defs><style>.cls-1{fill:rgba(255,125,0,.2);stroke-width:8px;}.cls-1,.cls-2{stroke:#ac5c00;}.cls-1,.cls-2,.cls-3,.cls-4{stroke-miterlimit:10;}.cls-2,.cls-3,.cls-4{fill:none;}.cls-2,.cls-4{stroke-width:3px;}.cls-5{opacity:.93;}.cls-3{stroke-width:2px;}.cls-3,.cls-4{stroke:#000;}.cls-6,.cls-7{font-family:Arial-BoldMT, Arial;font-size:48px;font-weight:700;}.cls-8{letter-spacing:-.02em;}.cls-7,.cls-9{fill:#ac5c00;}</style></defs><path d="M96.29,74c0-3.38-.04-6.75.02-10.13.02-1.06-.33-1.66-1.27-2.15-3.69-1.91-5.64-4.97-5.48-9.14.12-3.25.31-6.53.85-9.73.99-5.9,4.77-9.67,10.72-10.37,3.55-.42,7.24-.43,10.78.02,6.15.77,10.04,4.96,10.81,11.11.38,3,.61,6.04.68,9.06.1,4.01-1.76,7.04-5.29,8.92-1.13.6-1.51,1.27-1.5,2.53.06,6.64.03,13.28.03,19.91,0,1.89-.41,3.54-2.41,4.3-2.14.82-4.42-.4-4.86-2.66-.18-.89-.24-1.82-.24-2.72-.02-6.12-.05-12.25.02-18.37.01-1.38-.44-1.79-1.78-1.75-4.24.11-3.49-.45-3.53,3.56-.04,5.55,0,11.1-.02,16.65,0,.96-.1,1.95-.3,2.89-.34,1.59-1.72,2.61-3.38,2.64-1.67.03-3.09-.9-3.53-2.44-.22-.76-.29-1.58-.3-2.37-.03-3.26-.01-6.52-.01-9.79ZM106.3,55.47c2.17,0,4.35.05,6.52-.01,2.25-.07,3.24-1.13,3.12-3.37-.13-2.51-.31-5.02-.62-7.51-.4-3.17-2.39-4.87-5.57-4.91-2.17-.03-4.35-.03-6.52,0-3.26.04-5.23,1.77-5.62,5.04-.29,2.38-.46,4.77-.6,7.17-.14,2.41.87,3.51,3.29,3.58,2,.06,4,.01,6,.01Z"/><path d="M116.65,16.69c-.03,5.43-4.83,10.22-10.21,10.18-5.42-.04-10.16-4.85-10.14-10.26.03-5.43,4.84-10.22,10.22-10.18,5.42.04,10.16,4.84,10.13,10.26Z"/><path d="M49.29,238.29c0-2.4-.05-4.81.02-7.21.03-1.17-.31-1.74-1.54-1.58-.39.05-.8.01-1.2,0-4.4-.04-6.62-2.93-5.44-7.18,1.7-6.11,3.46-12.2,5.2-18.29.36-1.26.69-2.54,1.14-3.77,1.49-4.06,5.17-6.59,9.5-6.59,1.66,0,3.32,0,4.98,0,4.43,0,8.27,2.49,9.56,6.71,2.29,7.48,4.41,15.01,6.44,22.56,1,3.74-1.38,6.51-5.32,6.56q-2.97.04-2.97,3.04c0,4.4.03,8.81-.01,13.21-.02,2.63-1.33,4.13-3.54,4.24-1.82.09-3.47-1.05-3.7-2.87-.25-1.92-.25-3.87-.27-5.81-.04-3.37-.05-6.75.01-10.13.02-1.21-.25-1.73-1.6-1.72-3.7.01-3.7-.05-3.7,3.71,0,3.78,0,7.55,0,11.33,0,.68-.05,1.37-.16,2.04-.39,2.32-1.72,3.52-3.74,3.44-2.11-.08-3.49-1.45-3.59-3.82-.11-2.63-.02-5.26-.02-7.89,0,0-.01,0-.02,0ZM69.75,221.88c-.15-.82-.22-1.43-.38-2.01-1.25-4.39-2.61-8.75-3.75-13.17-1.62-6.27-1.95-5.63-7.56-5.63-2.45,0-3.3.62-3.96,2.92-1.4,4.88-2.78,9.77-4.15,14.65-.28,1.01-.51,2.04-.8,3.24h20.61Z"/><path d="M69.64,178.1c-.02,5.43-4.82,10.22-10.2,10.19-5.41-.03-10.17-4.83-10.15-10.25.02-5.43,4.82-10.22,10.21-10.19,5.41.03,10.16,4.83,10.14,10.25Z"/><circle class="cls-1" cx="314.61" cy="191.99" r="130.45"/><path class="cls-4" d="M471.42,213.59c12.92,10.04,34.71,22.23,63.19,20.73,31.38-1.65,51.79-18.93,57.46-24.07"/><polygon points="470.4 227.29 474.35 215.88 485.3 210.8 458.31 201.39 470.4 227.29"/><text class="cls-7" transform="translate(236.92 209.92)"><tspan class="cls-8" x="0" y="0">V</tspan><tspan x="31.15" y="0">illage</tspan></text><path d="M113.22,395.02c0-3.38-.04-6.75.02-10.13.02-1.06-.33-1.66-1.27-2.15-3.69-1.91-5.64-4.97-5.48-9.14.12-3.25.31-6.53.85-9.73.99-5.9,4.77-9.67,10.72-10.37,3.55-.42,7.24-.43,10.78.02,6.15.77,10.04,4.96,10.81,11.11.38,3,.61,6.04.68,9.06.1,4.01-1.76,7.04-5.29,8.92-1.13.6-1.51,1.27-1.5,2.53.06,6.64.03,13.28.03,19.91,0,1.89-.41,3.54-2.41,4.3-2.14.82-4.42-.4-4.86-2.66-.18-.89-.24-1.82-.24-2.72-.02-6.12-.05-12.25.02-18.37.01-1.38-.44-1.79-1.78-1.75-4.24.11-3.49-.45-3.53,3.56-.04,5.55,0,11.1-.02,16.65,0,.96-.1,1.95-.3,2.89-.34,1.59-1.72,2.61-3.38,2.64-1.67.03-3.09-.9-3.53-2.44-.22-.76-.29-1.58-.3-2.37-.03-3.26-.01-6.52-.01-9.79ZM123.23,376.49c2.17,0,4.35.05,6.52-.01,2.25-.07,3.24-1.13,3.12-3.37-.13-2.51-.31-5.02-.62-7.51-.4-3.17-2.39-4.87-5.57-4.91-2.17-.03-4.35-.03-6.52,0-3.26.04-5.23,1.77-5.62,5.04-.29,2.38-.46,4.77-.6,7.17-.14,2.41.87,3.51,3.29,3.58,2,.06,4,.01,6,.01Z"/><path d="M133.58,337.72c-.03,5.43-4.83,10.22-10.21,10.18-5.42-.04-10.16-4.85-10.14-10.26.03-5.43,4.84-10.22,10.22-10.18,5.42.04,10.16,4.84,10.13,10.26Z"/><path d="M617.3,217.65c0-2.4-.05-4.81.02-7.21.03-1.17-.31-1.74-1.54-1.58-.39.05-.8.01-1.2,0-4.4-.04-6.62-2.93-5.44-7.18,1.7-6.11,3.46-12.2,5.2-18.29.36-1.26.69-2.54,1.14-3.77,1.49-4.06,5.17-6.59,9.5-6.59,1.66,0,3.32,0,4.98,0,4.43,0,8.27,2.49,9.56,6.71,2.29,7.48,4.41,15.01,6.44,22.56,1,3.74-1.38,6.51-5.32,6.56q-2.97.04-2.97,3.04c0,4.4.03,8.81-.01,13.21-.02,2.63-1.33,4.13-3.54,4.24-1.82.09-3.47-1.05-3.7-2.87-.25-1.92-.25-3.87-.27-5.81-.04-3.37-.05-6.75.01-10.13.02-1.21-.25-1.73-1.6-1.72-3.7.01-3.7-.05-3.7,3.71,0,3.78,0,7.55,0,11.33,0,.68-.05,1.37-.16,2.04-.39,2.32-1.72,3.52-3.74,3.44-2.11-.08-3.49-1.45-3.59-3.82-.11-2.63-.02-5.26-.02-7.89,0,0-.01,0-.02,0ZM637.76,201.24c-.15-.82-.22-1.43-.38-2.01-1.25-4.39-2.61-8.75-3.75-13.17-1.62-6.27-1.95-5.63-7.56-5.63-2.45,0-3.3.62-3.96,2.92-1.4,4.88-2.78,9.77-4.15,14.65-.28,1.01-.51,2.04-.8,3.24h20.61Z"/><path d="M637.65,157.45c-.02,5.43-4.82,10.22-10.2,10.19-5.41-.03-10.17-4.83-10.15-10.25.02-5.43,4.82-10.22,10.21-10.19,5.41.03,10.16,4.83,10.14,10.25Z"/><text class="cls-6" transform="translate(512.75 276.6)"><tspan x="0" y="0">R</tspan></text><g class="cls-5"><text class="cls-7" transform="translate(480.61 127.02)"><tspan x="0" y="0">S(R)</tspan></text></g><path class="cls-2" d="M459.54,175.24c2.17-2.66,30.27-35.86,76.3-32.94,23.57,1.5,40.97,11.78,51.79,20.6"/><polygon class="cls-9" points="573.66 165.25 584.77 160.53 589.08 149.25 600.33 175.53 573.66 165.25"/><line class="cls-3" x1="132.99" y1="66.25" x2="192.61" y2="106.43"/><line class="cls-3" x1="96.3" y1="217.92" x2="173.35" y2="217.92"/><line class="cls-3" x1="156.84" y1="368.59" x2="217.38" y2="310.23"/></svg>