<?xml version="1.0" encoding="UTF-8"?><svg id="Layer_1" xmlns="http://www.w3.org/2000/svg" width="635.9" height="562.18" viewBox="0 0 635.9 562.18"><defs><style>.cls-1{letter-spacing:-.02em;}.cls-2{stroke:#15616d;}.cls-2,.cls-3,.cls-4,.cls-5,.cls-6,.cls-7{fill:none;stroke-miterlimit:10;}.cls-2,.cls-3,.cls-5,.cls-6,.cls-7{stroke-width:6px;}.cls-8{letter-spacing:-.01em;}.cls-9{letter-spacing:-.01em;}.cls-3{stroke-dasharray:10;}.cls-3,.cls-4,.cls-5,.cls-6{stroke:#000;}.cls-10{letter-spacing:0em;}.cls-11{letter-spacing:0em;}.cls-4{stroke-width:2px;}.cls-12{font-family:PublicSans-Bold, 'Public Sans';font-size:48px;font-weight:700;}.cls-13{letter-spacing:0em;}.cls-14{fill:#f8f9fa;}.cls-15{letter-spacing:0em;}.cls-16{fill:#ac5c00;}.cls-16,.cls-17,.cls-18{font-family:PublicSans-Regular, 'Public Sans';font-size:42px;}.cls-19{letter-spacing:0em;}.cls-20{letter-spacing:0em;}.cls-21{letter-spacing:-.02em;}.cls-6{stroke-dasharray:9.26 9.26;}.cls-22{letter-spacing:0em;}.cls-18{fill:#15616d;}.cls-23{letter-spacing:0em;}.cls-7{stroke:#ac5c00;}</style></defs><rect class="cls-14" x="161.99" y=".5" width="424" height="424"/><path d="M585.49,1v423H162.49V1h423M586.49,0H161.49v425h425V0h0Z"/><line class="cls-5" x1="191.43" y1="336.09" x2="196.43" y2="336.09"/><line class="cls-6" x1="205.69" y1="336.09" x2="256.62" y2="336.09"/><line class="cls-5" x1="261.25" y1="336.09" x2="266.25" y2="336.09"/><line class="cls-2" x1="266.25" y1="336.09" x2="564.67" y2="336.09"/><path class="cls-7" d="M200.58,26.16c10.36-.97,69.12-5.13,110.25,53.2,8.4,11.92,29.5,41.42,32.26,86.86h0"/><path class="cls-3" d="M266.25,336.09c13-7.94,33.8-23.07,50.9-48.82,26.68-40.18,27.56-80.96,27.06-96.76"/><text class="cls-16" transform="translate(313.02 56.12)"><tspan x="0" y="0">V</tspan><tspan class="cls-10" x="28.24" y="0">i</tspan><tspan class="cls-9" x="38.91" y="0">l</tspan><tspan class="cls-13" x="51.01" y="0">l</tspan><tspan x="63.52" y="0">a</tspan><tspan class="cls-1" x="86.75" y="0">g</tspan><tspan class="cls-11" x="112.2" y="0">e</tspan></text><text class="cls-18" transform="translate(327.7 387.2)"><tspan x="0" y="0">Dispe</tspan><tspan class="cls-15" x="109.58" y="0">r</tspan><tspan x="125.85" y="0">sed</tspan></text><text class="cls-12" transform="translate(113.63 41.63)"><tspan x="0" y="0">R</tspan></text><text class="cls-12" transform="translate(549.79 477.02)"><tspan x="0" y="0">A</tspan></text><circle cx="266.25" cy="425" r="8.5"/><circle cx="344.21" cy="425" r="8.5"/><path class="cls-7" d="M344.21,190.51c-.37-8.1-.75-16.19-1.12-24.29"/><text class="cls-17" transform="translate(0 552.1)"><tspan x="0" y="0">B</tspan><tspan class="cls-20" x="28.16" y="0">r</tspan><tspan class="cls-11" x="44.25" y="0">e</tspan><tspan class="cls-22" x="67.77" y="0">ak po</tspan><tspan class="cls-19" x="173.54" y="0">i</tspan><tspan class="cls-21" x="184.21" y="0">n</tspan><tspan class="cls-23" x="207.54" y="0">t</tspan></text><text class="cls-17" transform="translate(378.99 552.1)"><tspan x="0" y="0">Su</tspan><tspan class="cls-8" x="52.52" y="0">s</tspan><tspan class="cls-15" x="73.29" y="0">t</tspan><tspan x="89.48" y="0">a</tspan><tspan class="cls-19" x="112.71" y="0">i</tspan><tspan x="123.37" y="0">n po</tspan><tspan class="cls-19" x="206.57" y="0">i</tspan><tspan class="cls-21" x="217.24" y="0">n</tspan><tspan class="cls-23" x="240.57" y="0">t</tspan></text><polyline class="cls-4" points="240.57 539.04 266.25 539.04 266.25 454.26"/><polygon points="273.66 459.87 266.25 456.73 258.85 459.87 266.25 442.32 273.66 459.87"/><polyline class="cls-4" points="369.98 539.04 344.3 539.04 344.3 454.26"/><polygon points="351.7 459.87 344.3 456.73 336.89 459.87 344.3 442.32 351.7 459.87"/></svg>