<?xml version="1.0" encoding="UTF-8"?><svg id="Layer_1" xmlns="http://www.w3.org/2000/svg" width="1772.92" height="602.33" viewBox="0 0 1772.92 602.33"><defs><style>.cls-1{fill:#15616d;}.cls-1,.cls-2,.cls-3,.cls-4{font-size:48px;}.cls-1,.cls-2,.cls-4{font-family:PublicSans-Regular, 'Public Sans';}.cls-5{letter-spacing:-.02em;}.cls-6,.cls-7{stroke-width:3px;}.cls-6,.cls-7,.cls-8,.cls-9,.cls-10,.cls-11,.cls-12,.cls-13{stroke-miterlimit:10;}.cls-6,.cls-7,.cls-8,.cls-11,.cls-13{fill:none;stroke-linecap:round;}.cls-6,.cls-7,.cls-8,.cls-12{stroke:#000;}.cls-14{letter-spacing:0em;}.cls-7{stroke-dasharray:11.93 11.93;}.cls-8,.cls-9,.cls-10,.cls-11,.cls-12,.cls-13{stroke-width:6px;}.cls-9{fill:rgba(255,125,0,.2);}.cls-9,.cls-13{stroke:#ac5c00;}.cls-10{fill:rgba(21,97,109,.2);}.cls-10,.cls-11{stroke:#15616d;}.cls-15{letter-spacing:-.16em;}.cls-16{letter-spacing:-.11em;}.cls-3{font-family:PublicSans-Bold, 'Public Sans';font-weight:700;}.cls-17{letter-spacing:-.02em;}.cls-18{fill:#f8f9fa;}.cls-4{fill:#ac5c00;}.cls-19{letter-spacing:0em;}.cls-20{letter-spacing:0em;}.cls-21{letter-spacing:0em;}.cls-22{letter-spacing:0em;}.cls-23{letter-spacing:-.02em;}</style></defs><rect class="cls-18" x="915.53" y=".5" width="531.61" height="531.61"/><path d="M1446.64,1v530.61h-530.61V1h530.61M1447.64,0h-532.61v532.61h532.61V0h0Z"/><line class="cls-11" x1="942.7" y1="87.39" x2="1419.98" y2="494.68"/><path class="cls-13" d="M941.19,494.52c29.08.91,117.97.15,168.97-57.11,20.92-23.49,33.87-54.71,43.1-76.97,17.48-42.15,15.7-58.54,26.83-92.93,6.6-20.39,26.26-85.05,80.16-128.01,66.69-53.14,141.38-52.61,159.72-51.98"/><text class="cls-1" transform="translate(1460.08 512.52)"><tspan x="0" y="0">P(R) = C</tspan><tspan class="cls-16" x="175.37" y="0"> </tspan><tspan class="cls-15" x="181.68" y="0">-</tspan><tspan x="191.93" y="0" xml:space="preserve"> AR</tspan></text><text class="cls-4" transform="translate(1460.08 109.94)"><tspan x="0" y="0">S(R)</tspan></text><text class="cls-3" transform="translate(1164.63 590.81)"><tspan x="0" y="0">R</tspan></text><line class="cls-6" x1="1418.72" y1="60.31" x2="1412.72" y2="60.31"/><line class="cls-7" x1="1400.79" y1="60.31" x2="953.41" y2="60.31"/><line class="cls-6" x1="947.45" y1="60.31" x2="941.45" y2="60.31"/><circle class="cls-9" cx="175.44" cy="255.28" r="172.44"/><circle class="cls-10" cx="588.69" cy="349.3" r="63.01"/><line class="cls-8" x1="588.69" y1="349.3" x2="756.92" y2="423.03"/><text class="cls-1" transform="translate(396.69 461.91)"><tspan x="0" y="0">Dispe</tspan><tspan class="cls-22" x="125.23" y="0">r</tspan><tspan x="143.83" y="0">sed</tspan><tspan class="cls-14" x="0" y="52">F</tspan><tspan x="28.03" y="52">arm</tspan></text><line class="cls-8" x1="175.44" y1="255.28" x2="687.92" y2="115.88"/><text class="cls-4" transform="translate(99.3 64.57)"><tspan x="0" y="0">V</tspan><tspan class="cls-20" x="32.28" y="0">i</tspan><tspan class="cls-17" x="44.47" y="0">l</tspan><tspan class="cls-21" x="58.29" y="0">l</tspan><tspan x="72.6" y="0">a</tspan><tspan class="cls-5" x="99.14" y="0">g</tspan><tspan class="cls-19" x="128.23" y="0">e</tspan></text><text class="cls-3" transform="translate(473.35 148.88)"><tspan x="0" y="0">R</tspan></text><text class="cls-3" transform="translate(677.06 376.47)"><tspan x="0" y="0">R</tspan></text><circle class="cls-12" cx="687.92" cy="115.88" r="34.67"/><circle class="cls-12" cx="756.92" cy="423.03" r="34.67"/><text class="cls-2" transform="translate(739.25 132.46)"><tspan x="0" y="0">Fie</tspan><tspan class="cls-23" x="67.58" y="0">l</tspan><tspan x="80.93" y="0">d</tspan></text></svg>