<?xml version="1.0" encoding="UTF-8"?><svg id="Layer_1" xmlns="http://www.w3.org/2000/svg" width="767.86" height="288.97" viewBox="0 0 767.86 288.97"><defs><style>.cls-1{letter-spacing:-.01em;}.cls-2{letter-spacing:0em;}.cls-3{fill:#ffecd1;}.cls-4{letter-spacing:-.02em;}.cls-5{letter-spacing:0em;}.cls-6{letter-spacing:0em;}.cls-7{font-family:PublicSans-Regular, 'Public Sans';font-size:36px;}.cls-8{letter-spacing:0em;}.cls-9{letter-spacing:-.07em;}.cls-10{letter-spacing:-.01em;}.cls-11{letter-spacing:.01em;}.cls-12{fill:none;stroke:#000;stroke-miterlimit:10;stroke-width:6px;}.cls-13{letter-spacing:-.01em;}.cls-14{letter-spacing:0em;}.cls-15{letter-spacing:0em;}.cls-16{letter-spacing:-.02em;}.cls-17{letter-spacing:-.02em;}.cls-18{letter-spacing:-.02em;}.cls-19{letter-spacing:0em;}.cls-20{letter-spacing:0em;}.cls-21{letter-spacing:0em;}.cls-22{letter-spacing:-.02em;}</style></defs><rect class="cls-3" x="75.27" y="58.32" width="173" height="173"/><path d="M247.27,59.32v171H76.27V59.32h171M249.27,57.32H74.27v175h175V57.32h0Z"/><line class="cls-12" x1="485.93" y1="144.82" x2="685.93" y2="144.82"/><line class="cls-12" x1="485.93" y1="125.55" x2="485.93" y2="164.08"/><line class="cls-12" x1="685.93" y1="125.55" x2="685.93" y2="164.08"/><text class="cls-7" transform="translate(7.35 275.55)"><tspan x="0" y="0">4-he</tspan><tspan class="cls-4" x="77.36" y="0">c</tspan><tspan class="cls-19" x="96.1" y="0">t</tspan><tspan x="109.98" y="0">a</tspan><tspan class="cls-14" x="129.89" y="0">r</tspan><tspan class="cls-2" x="143.67" y="0">e</tspan><tspan x="163.83" y="0" xml:space="preserve"> grid</tspan><tspan class="cls-10" x="239.45" y="0"> </tspan><tspan class="cls-19" x="247.73" y="0">c</tspan><tspan x="267.17" y="0">e</tspan><tspan class="cls-17" x="287.57" y="0">l</tspan><tspan class="cls-6" x="297.93" y="0">l</tspan></text><text class="cls-7" transform="translate(65.9 31.01)"><tspan x="0" y="0">S</tspan><tspan class="cls-20" x="24.12" y="0">p</tspan><tspan class="cls-16" x="45.32" y="0">a</tspan><tspan x="64.46" y="0">tial </tspan><tspan class="cls-8" x="126.94" y="0">u</tspan><tspan x="148.07" y="0">nit</tspan></text><text class="cls-7" transform="translate(470.93 31.01)"><tspan class="cls-9" x="0" y="0">T</tspan><tspan x="18.86" y="0">empo</tspan><tspan class="cls-22" x="112.19" y="0">r</tspan><tspan x="125.62" y="0">al </tspan><tspan class="cls-21" x="165.18" y="0">u</tspan><tspan class="cls-5" x="186.32" y="0">nit</tspan></text><text class="cls-7" transform="translate(411.61 275.55)"><tspan x="0" y="0">25</tspan><tspan class="cls-18" x="44.51" y="0">-</tspan><tspan class="cls-15" x="57.49" y="0">y</tspan><tspan class="cls-20" x="76.39" y="0">e</tspan><tspan x="96.55" y="0">ar t</tspan><tspan class="cls-8" x="153.29" y="0">i</tspan><tspan x="162.43" y="0">m</tspan><tspan class="cls-20" x="193.57" y="0">e</tspan><tspan x="213.73" y="0"> </tspan><tspan class="cls-8" x="222.48" y="0">i</tspan><tspan class="cls-16" x="231.62" y="0">n</tspan><tspan class="cls-1" x="251.62" y="0">t</tspan><tspan x="265.14" y="0">e</tspan><tspan class="cls-11" x="285.53" y="0">r</tspan><tspan class="cls-13" x="300.09" y="0">v</tspan><tspan class="cls-6" x="317.82" y="0">al</tspan></text></svg>