<?xml version="1.0" encoding="UTF-8"?><svg xmlns="http://www.w3.org/2000/svg" width="1370" height="460" viewBox="0 0 1370 460"><defs><style>.cls-1{fill:#fff8f3;}.cls-2{stroke:#15616d;}.cls-2,.cls-3{fill:none;stroke-linecap:round;stroke-miterlimit:10;stroke-width:6px;}.cls-4{fill:#371d00;}.cls-5{fill:#ac5c00;}.cls-5,.cls-6{font-family:PublicSans-Bold, 'Public Sans';font-size:48px;font-weight:700;}.cls-7{font-family:PublicSans-Regular, 'Public Sans';font-size:42px;}.cls-3{stroke:#ac5c00;}.cls-6{fill:#15616d;}</style></defs><g id="Shared"><text id="y-axis-label" class="cls-7" transform="translate(54.83 313.01) rotate(-90)"><tspan x="0" y="0">Well-being</tspan></text><text id="x-axis-label" class="cls-7" transform="translate(319.17 441.77)"><tspan x="0" y="0">Time since settlement established</tspan></text><text id="stay-label" class="cls-5" transform="translate(1247.33 81.02)"><tspan x="0" y="0">Stay</tspan></text><text id="go-label" class="cls-6" transform="translate(1246.17 287.46)"><tspan x="0" y="0">Go</tspan></text></g><g id="Table_C"><g id="Panel"><rect class="cls-1" x="855.2" y="16.13" width="379" height="379"/><path class="cls-4" d="M1233.7,16.63v378h-378V16.63h378M1234.7,15.63h-380v380h380V15.63h0Z"/></g><line id="Stay" class="cls-3" x1="879.28" y1="325.51" x2="1211.63" y2="65.03"/><line id="Go" class="cls-2" x1="879.28" y1="374.09" x2="1211.55" y2="272.51"/><text class="cls-7" transform="translate(871.08 59.49) scale(1.03 1)"><tspan x="0" y="0">C</tspan></text></g><g id="Table_B"><g id="Panel-2"><rect class="cls-1" x="464.73" y="16.13" width="379" height="379"/><path class="cls-4" d="M843.23,16.63v378h-378V16.63h378M844.23,15.63h-380v380h380V15.63h0Z"/></g><line id="Stay-2" class="cls-3" x1="488.81" y1="258.18" x2="820.5" y2="258.18"/><line id="Go-2" class="cls-2" x1="488.45" y1="374.09" x2="820.5" y2="145.74"/><text class="cls-7" transform="translate(480.18 58.78) scale(1.03 1)"><tspan x="0" y="0">B</tspan></text></g><g id="Table_A"><g id="Panel-3"><rect class="cls-1" x="74.73" y="16.13" width="379" height="379"/><path class="cls-4" d="M453.23,16.63v378H75.23V16.63h378M454.23,15.63H74.23v380h380V15.63h0Z"/></g><line id="Stay-3" class="cls-3" x1="98.81" y1="185.18" x2="431.21" y2="374.09"/><line id="Go-3" class="cls-2" x1="98.81" y1="374.09" x2="431.21" y2="193.43"/><text class="cls-7" transform="translate(89.37 59.16) scale(1.03 1)"><tspan x="0" y="0">A</tspan></text></g></svg>